<svg width="33.145" height="21.264" viewBox="0 0 33.145 21.264" xmlns="http://www.w3.org/2000/svg"><g id="svgGroup" stroke-linecap="round" fill-rule="nonzero" font-size="9pt" stroke="#14b8a6" stroke-width="0.5" fill="#14b8a6" style="stroke:#14b8a6;stroke-width:0.5;fill:#14b8a6"><path d="M 27.072 17.136 L 25.44 18.528 L 21.24 13.32 L 17.088 18.48 L 15.552 17.136 L 19.992 11.976 L 15.72 7.032 L 17.4 5.568 L 21.264 10.56 L 25.056 5.664 L 26.664 7.032 L 22.512 11.88 L 27.072 17.136 Z M 4.08 18.312 L 1.92 18.312 L 1.92 8.16 L 0 8.16 L 0 6.288 L 1.92 6.288 L 1.92 4.824 Q 1.92 2.712 3.096 1.488 Q 4.272 0.264 6.168 0.264 Q 7.152 0.264 7.896 0.492 Q 8.64 0.72 9.312 1.056 L 8.664 2.88 Q 8.16 2.616 7.584 2.4 Q 7.008 2.184 6.312 2.184 Q 5.304 2.184 4.692 2.82 Q 4.08 3.456 4.08 4.68 L 4.08 6.288 L 7.776 6.288 L 7.776 8.16 L 4.08 8.16 L 4.08 18.312 Z M 29.976 21.264 L 28.704 20.544 Q 29.616 18.48 30.24 16.008 Q 30.864 13.536 30.864 10.632 Q 30.864 7.704 30.24 5.22 Q 29.616 2.736 28.704 0.72 L 29.976 0 Q 31.464 2.52 32.304 5.076 Q 33.144 7.632 33.144 10.632 Q 33.144 13.416 32.304 16.02 Q 31.464 18.624 29.976 21.264 Z M 13.92 20.544 L 12.648 21.264 Q 11.16 18.624 10.32 16.02 Q 9.48 13.416 9.48 10.632 Q 9.48 7.632 10.332 5.076 Q 11.184 2.52 12.648 0 L 13.92 0.72 Q 13.032 2.736 12.396 5.22 Q 11.76 7.704 11.76 10.632 Q 11.76 13.536 12.396 16.008 Q 13.032 18.48 13.92 20.544 Z"/></g></svg>